<svg xmlns="http://www.w3.org/2000/svg" viewBox="0 0 350.68 188.04"><defs><style>.cls-1{fill:#ebbab9;}.cls-2,.cls-3,.cls-4{fill:#fff;}.cls-3{font-size:60.27px;font-family:JosefinSans-SemiBold, JosefinSans SemiBold;font-weight:600;}.cls-4{font-size:33.33px;font-family:JosefinSans-Light, JosefinSans Light;font-weight:300;}</style></defs><g id="OBJECTS"><circle class="cls-1" cx="299.59" cy="138.68" r="17.9"/><path class="cls-1" d="M499.51,165.84c-.44-.93-1.33-1-2-1.33a93.69,93.69,0,0,0-15.64-4.93,4.49,4.49,0,0,0-4.08.89,62.14,62.14,0,0,1-12.43,7.21,10.85,10.85,0,0,1-4,1.1,2.24,2.24,0,0,1-2.36-1.13,2.32,2.32,0,0,1,.42-2.59,10.86,10.86,0,0,1,2.7-2.35,47.59,47.59,0,0,1,8.08-4.37,3,3,0,0,0-2.36-.67c-3.69-.16-7.4-.17-11.09-.42a5.4,5.4,0,0,0-5,2.34c-1.59,2-3.23,4-4.94,6a11.71,11.71,0,0,1-3.63,3,2.29,2.29,0,0,1-2.61-.05c-1-.76-.83-1.8-.51-2.8a8.09,8.09,0,0,1,2.12-3.22,21.08,21.08,0,0,0,2.84-3.23c-1,.37-2.08.71-3.11,1.1a42.85,42.85,0,0,1-11.8,2.85,13.25,13.25,0,0,1-6-.7c-1.13-.47-2.22-1.08-2.28-2.53s.93-2.12,2.06-2.67a13.24,13.24,0,0,1,4-1c3.75-.54,7.54-.65,11.33-.84,1.19-.06,2.38-.15,3.53-.23.34-1.07-.52-1.21-1-1.54a27.22,27.22,0,0,1-4.63-4,6.59,6.59,0,0,1-1.37-2.09c-.37-1.08-.63-2.2.23-3.16s2-.81,3.1-.5a14,14,0,0,1,4.83,2.72c2.89,2.34,5.77,4.7,8.59,7.13a3.44,3.44,0,0,0,2.42,1.08c4.63-.11,9.25.11,13.87.38a.62.62,0,0,0,.73-.43c-1.36-1.51-2.81-3-4.18-4.66a13.16,13.16,0,0,1-3-6.24c-.26-1.35-.16-2.7,1.1-3.48s2.53-.15,3.55.72a41,41,0,0,1,6.91,8c1.33,1.91,2.58,3.87,3.79,5.86a3.22,3.22,0,0,0,2.33,1.75,92.8,92.8,0,0,1,18.63,5.55,5,5,0,0,0,1,.17c0-1.15-.67-1.94-1.06-2.82a21.72,21.72,0,0,1-1.9-8.94,8,8,0,0,1,.13-1.38c.28-1.52.72-3,2.46-3.32s2.73.89,3.56,2.18a14.9,14.9,0,0,1,2,5.78q.79,5.24,1.45,10.5a2.88,2.88,0,0,0,1.47,2.47,77.82,77.82,0,0,1,17.39,13.87,11.59,11.59,0,0,0,1,.8c.48-1.28-.23-2.29-.49-3.27a76.91,76.91,0,0,1-1.88-7.87,18.32,18.32,0,0,1,.6-9.09c.47-1.26,1.13-2.44,2.68-2.42s2.2,1.25,2.64,2.51a27.44,27.44,0,0,1,1.21,6.29,92.12,92.12,0,0,1,.08,16.44,6.7,6.7,0,0,0,1.75,5.33c2,2.29,3.91,4.73,5.79,7.16.59.76,1.66,1.78.64,2.65-1.26,1.07-1.88-.41-2.55-1.21-2.07-2.52-4.1-5.06-6.21-7.55-1.47-1.72-1.7-1.75-3.76-.75a32.85,32.85,0,0,1-15.23,3.58,8.07,8.07,0,0,1-3.53-.62,1.74,1.74,0,0,1-.37-3.13,10.48,10.48,0,0,1,3.77-1.7,73.7,73.7,0,0,1,11.41-2.21,5.83,5.83,0,0,0,2.59-.52c.13-.63-.27-.91-.58-1.25a79.39,79.39,0,0,0-15.65-13.38,3.69,3.69,0,0,0-3.81-.45c-5.68,2.27-11.71,2.44-17.74,2.3a4.46,4.46,0,0,1-1.62-.33,1.58,1.58,0,0,1-.49-2.86,6.29,6.29,0,0,1,2.71-1.31,54.93,54.93,0,0,1,8.71-1.6,7.52,7.52,0,0,0,2.7-.49m3.75-2.73c.5-5.69-1.33-12.84-3.79-14.28-.89,5.38,1.12,9.83,3.79,14.28m25.12,15.32c1-4.79.08-13.74-1.62-16.46-1.77,5.72-.1,10.85,1.62,16.46m-54-23.75c-2.65-4.19-5.1-8.61-9.5-11.93.73,4.6,4,8.7,9.5,11.93m-49.54,5.45c3.87,1.18,7.51.38,11.13-.59.15,0,.4-.3.38-.34a2.68,2.68,0,0,0-.48-.64,2.06,2.06,0,0,0-1.83-.39c-2.47.26-4.95.54-7.42.85a1.89,1.89,0,0,0-1.78,1.11m13.86-13.51c1.31,3.19,6.23,6.8,9.77,7.23-3.07-2.65-5.85-5.67-9.77-7.23m24.11,19.15c4.41-1.38,9.21-4.1,11.53-6.53a98.35,98.35,0,0,0-10.31,5.21c-.44.27-1,.41-1.22,1.32m59.69,22.79a29.52,29.52,0,0,0-10,2,18.56,18.56,0,0,0,10-2M500,168.8a22.79,22.79,0,0,0-6.58.68,2.92,2.92,0,0,0,2.27.18,11.83,11.83,0,0,0,4.31-.86" transform="translate(-199.66 -140.01)"/><rect class="cls-1" x="49.76" y="114.92" width="155.98" height="73.12"/><rect class="cls-1" x="49.76" y="30.94" width="155.98" height="11.71"/><path class="cls-2" d="M498.66,172.39c-.52-.89-1.42-.91-2.16-1.14a93.46,93.46,0,0,0-16-3.46,4.45,4.45,0,0,0-4,1.26,62.22,62.22,0,0,1-11.71,8.33,11,11,0,0,1-3.86,1.46,2.24,2.24,0,0,1-2.45-.91,2.31,2.31,0,0,1,.18-2.62,11,11,0,0,1,2.47-2.59,47.22,47.22,0,0,1,7.64-5.09,3,3,0,0,0-2.41-.45c-3.69.18-7.38.51-11.08.6a5.43,5.43,0,0,0-4.75,2.79q-2.08,3.27-4.36,6.41a11.51,11.51,0,0,1-3.35,3.28,2.28,2.28,0,0,1-2.6.2c-1-.68-1-1.72-.76-2.75a8.07,8.07,0,0,1,1.81-3.4,21,21,0,0,0,2.53-3.47c-1,.45-2,.89-3,1.37a42.23,42.23,0,0,1-11.49,3.93,13.2,13.2,0,0,1-6.06-.14c-1.17-.36-2.31-.87-2.5-2.31s.72-2.2,1.8-2.85a12.9,12.9,0,0,1,3.9-1.39c3.68-.89,7.45-1.34,11.2-1.89,1.18-.17,2.36-.37,3.49-.55.24-1.1-.63-1.15-1.11-1.44a26.86,26.86,0,0,1-5-3.57,6.68,6.68,0,0,1-1.56-1.95c-.47-1.05-.83-2.14-.06-3.17s1.91-1,3-.78a13.84,13.84,0,0,1,5.06,2.26c3.1,2.06,6.17,4.15,9.21,6.3a3.35,3.35,0,0,0,2.51.85c4.6-.53,9.22-.74,13.84-.89a.63.63,0,0,0,.69-.5c-1.49-1.38-3.08-2.78-4.59-4.25a13.12,13.12,0,0,1-3.52-5.94c-.38-1.32-.41-2.68.77-3.57s2.51-.38,3.61.39a41.33,41.33,0,0,1,7.61,7.34c1.5,1.78,2.93,3.62,4.31,5.5a3.25,3.25,0,0,0,2.49,1.52,92.12,92.12,0,0,1,19.06,3.81,4.82,4.82,0,0,0,1,.08c-.07-1.15-.85-1.88-1.32-2.71a21.73,21.73,0,0,1-2.72-8.73,8.07,8.07,0,0,1,0-1.39c.13-1.53.43-3.06,2.14-3.53s2.8.63,3.74,1.85a14.65,14.65,0,0,1,2.5,5.56q1.29,5.14,2.41,10.33a2.93,2.93,0,0,0,1.7,2.33,77.37,77.37,0,0,1,18.59,12.2c.28.23.61.41,1,.7.37-1.32-.43-2.25-.78-3.21a75,75,0,0,1-2.6-7.66,18.11,18.11,0,0,1-.24-9.1c.34-1.31.9-2.54,2.44-2.66s2.31,1,2.87,2.26a27.25,27.25,0,0,1,1.77,6.15,89.88,89.88,0,0,1,1.6,16.35,6.72,6.72,0,0,0,2.24,5.15c2.24,2.1,4.33,4.36,6.43,6.6.66.7,1.82,1.62.88,2.58-1.16,1.18-1.91-.23-2.65-1-2.3-2.31-4.56-4.66-6.88-6.93-1.63-1.59-1.86-1.59-3.82-.41a32.71,32.71,0,0,1-14.83,5,8,8,0,0,1-3.57-.29,1.74,1.74,0,0,1-.66-3.09,10.73,10.73,0,0,1,3.59-2,75.47,75.47,0,0,1,11.16-3.25,5.69,5.69,0,0,0,2.54-.75c.06-.64-.36-.89-.7-1.19a79.28,79.28,0,0,0-16.81-11.88,3.68,3.68,0,0,0-3.84-.09c-5.45,2.77-11.43,3.5-17.45,3.92a4.58,4.58,0,0,1-1.65-.18,1.59,1.59,0,0,1-.75-2.81,6.36,6.36,0,0,1,2.58-1.55,57.14,57.14,0,0,1,8.53-2.4,7.51,7.51,0,0,0,2.64-.73m3.48-3.07c0-5.71-2.51-12.66-5.09-13.86-.39,5.43,2,9.67,5.09,13.86m26.42,12.94c.52-4.86-1.19-13.68-3.12-16.24-1.24,5.86.89,10.82,3.12,16.24m-55.91-18.67c-3-3.92-5.87-8.1-10.57-11,1.15,4.51,4.78,8.3,10.57,11m-48.83,10c4,.81,7.51-.31,11-1.62.14-.06.37-.33.34-.37a2.7,2.7,0,0,0-.53-.59,2.06,2.06,0,0,0-1.86-.22q-3.66.72-7.31,1.52a1.94,1.94,0,0,0-1.67,1.28m12.55-14.74c1.6,3.06,6.83,6.2,10.4,6.3-3.3-2.35-6.35-5.1-10.4-6.3m25.77,16.85c4.27-1.78,8.8-4.93,10.88-7.56a97.73,97.73,0,0,0-9.78,6.14c-.41.3-1,.5-1.1,1.42m61.55,17.19a29.52,29.52,0,0,0-9.77,2.9,18.54,18.54,0,0,0,9.77-2.9m-24.31-17.6a22.72,22.72,0,0,0-6.48,1.29,3,3,0,0,0,2.28,0,11.78,11.78,0,0,0,4.2-1.26" transform="translate(-199.66 -140.01)"/><polygon class="cls-2" points="350.68 173.31 0 173.31 0 78.87 44.6 78.87 44.6 82.29 3.42 82.29 3.42 169.88 347.25 169.88 347.25 82.29 340.06 82.29 340.06 78.87 350.68 78.87 350.68 173.31"/><text class="cls-3" transform="translate(50.38 107.64)">MODERN</text><text class="cls-4" transform="translate(44.3 147.7)"><tspan xml:space="preserve"> DESIGNS</tspan></text><rect class="cls-2" x="211.53" y="143.66" width="117.65" height="1.28"/></g></svg>